<?xml version="1.0" encoding="utf-8"?>
<!-- Generator: Adobe Illustrator 19.0.0, SVG Export Plug-In . SVG Version: 6.00 Build 0)  -->
<svg version="1.1" id="Layer_1" xmlns="http://www.w3.org/2000/svg" xmlns:xlink="http://www.w3.org/1999/xlink" x="0px" y="0px"
	 viewBox="0 0 550.6 111.1" style="enable-background:new 0 0 550.6 111.1;" xml:space="preserve">
<g id="XMLID_1_">
	<path id="XMLID_76_" d="M11.9,29.7c0.3-1.5,0.7-3.1,0.8-4.6c0.3-4,3.1-7.1,6.9-7.7c1.5-0.3,3.3-0.6,4.4-1.5
		c5.1-4,10.4-1.6,15.4-0.5c4.7,1,9.4,2.8,13.6,5.2c4.8,2.7,9.2,6.2,13.4,9.7c2.8,2.4,4,2.4,5.2-1c4.1-11.9,14.8-18.2,26.9-15.7
		c3.5,0.7,7,1.9,10.6,2.2c6.7,0.6,10.1,5.4,13.7,10.1c1.5,2,3.7,3.6,5.3,5.6c3.1,3.9,6.2,7.8,9,11.9c1.5,2.2,2.7,4.8,3.6,7.3
		c3.7,10,0.7,19.1-4.6,27.6c-1.7,2.8-3.9,5.3-5.5,8.1c-4.1,7.3-10.6,10.2-18.5,11.8c-5.1,1.1-10,2.2-14.9,0.5
		c-4-1.4-7.8-3.6-11.6-5.7c-10.4-5.8-14.3-15.6-16.2-26.6c-0.4-2.4-1-4.8-1.4-7c-4.2,5.8-7.3,12.6-12.6,16.8
		c-5.7,4.6-13.7,1.4-21.6,1c0,5.3-0.2,10.5,0.1,15.5c0.2,3.7-1.4,6.2-5.1,6.8c-2.8,0.5-5.7,1.6-8.5,1.3c-5.8-0.6-8.7-6.6-7.4-13.3
		c1.5-7.8,0.8-15.7,0.1-23.6c-0.4-5.7,0.1-11.4-0.1-17.2c-0.2-5.4-0.7-10.8-1-16.2C11.9,30.2,11.9,29.9,11.9,29.7z M98,38.7
		C88.8,37.8,80.3,49,86,58.3c0.8,1.4,1.4,3,1.8,4.5c1.6,5.3,3.5,9.9,10,10.7c3.6,0.5,7.1,2,10.6,2.9c1,0.2,2.4,0,3.2-0.6
		c3.6-2.8,6.2-6.4,7.6-10.9c2.3-7.3-1.2-13-5.1-18.3C110.8,41.8,105.7,39,98,38.7z M53.2,45c-0.9-1.5-1.6-3.2-2.6-4.6
		c-1.2-1.7-3-3-4.1-4.7c-2.9-4.7-4.8-5-8.4-0.9c-0.6,0.7-1.1,1.4-1.5,2.2c-1.4,3-2.4,6.2-4,9.1c-1.6,2.8,0.2,3.4,2.2,4.3
		c1.7,0.8,3.5,1.6,4.8,2.8c2.1,1.9,3.8,2.7,6.2,0.6c1.1-1,2.4-1.9,3.7-2.6C51.7,49.9,53.1,48.2,53.2,45z"/>
	<path id="XMLID_73_" d="M350.2,8.2c4.5,2.1,9,4,13.3,6.3c2.1,1.1,3.7,3,5.6,4.5c1.8,1.5,3.5,3.4,5.6,4.4
		c8.8,4.6,12.1,12.3,12.2,21.6c0,2.2-1.1,4.7-2.4,6.4c-2.6,3.5-5.3,7.3-8.9,9.6c-3.9,2.6-8.7,4.5-13.3,5.2c-6.6,1-13.4,0.7-20.1,1
		c-2.4,0.1-3.3,1-2.1,3.4c1.3,2.4,2,5.3,3.8,7.2c1.4,1.5,4.4,2.7,6.3,2.3c7-1.6,14-3.6,20.7-6.1c2.8-1,5.2-3.5,7.6-5.5
		c1.5-1.2,2.4-2.6,4.9-1.4c2.4,1.2,5,2.2,5.2,5.2c0.3,3.8-0.1,7.4-3.4,10.3c-2.8,2.5-4.8,5.8-7.6,8.1c-10.3,8.3-22.5,9.5-35.1,8.5
		c-5.8-0.5-9.5-5.2-12-10c-1.9-3.6-2.3-8-3.2-12.1c-1.2-5.2-2.4-10.5-3.3-15.8c-0.4-2.4,0-4.9,0.2-7.4c0.7-8.5,0.5-17.2,2.6-25.4
		c1.5-6.1,5.5-11.7,9.2-17c1.3-1.9,4.8-2.4,7.4-3.5C345.5,8.2,347.9,8.2,350.2,8.2z M344.7,55c2.8,0,5,0.3,7.1-0.1
		c8.2-1.5,11.9-1.8,13.4-9.3c1.3-6.5-1.5-13.2-6.1-15.8c-2.2-1.3-6.3-2.2-8.1-1c-4.2,2.8-8.3,6.8-8.5,12.3
		C342.5,45.6,343.9,50.2,344.7,55z"/>
	<path id="XMLID_72_" d="M307.2,102.6c-3.8-2.4-5.3-6.1-5.3-10.5c-0.3-15.5,0-31.1-1.1-46.6c-0.3-5.1-3.7-10.2-6.5-14.8
		c-1.3-2.1-4.5-1.5-5.4,1.3c-1.4,4-2.6,8.1-3.1,12.3c-0.9,8.7-1.3,17.4-1.5,26.1c-0.1,2.7,0.9,5.6,1.8,8.2c1.4,4.2,2.6,8.3,1.2,12.7
		c-1,2.9-2.1,5.8-3.7,8.4c-1.5,2.5-3.9,2.8-6.6,1.5c-1.4-0.7-3.3-0.8-4.5-1.7c-1.7-1.3-3.6-2.9-4.2-4.8c-3.6-12-5.5-24.4-4.6-36.9
		c0.7-9.7-0.6-19-2.4-28.4c-1.3-7.2,1.4-13.1,7.4-17.4c2.4-1.7,8.1-0.3,10.6,2.6c2.5,2.8,4,2.8,6.4-0.1c4.3-5,12-5.6,16.5-0.6
		c3.3,3.7,5.9,8,8.8,12.1c5.3,7.4,7.5,15.7,7.7,24.7c0.1,4.3,0.7,8.6,0.7,12.9c0,6.1-0.5,12.2-0.7,18.2c-0.1,2.7,0.6,5.6-0.1,8
		c-1.3,4.4-3.4,8.6-5.2,12.9C311.3,102.6,309.2,102.6,307.2,102.6z"/>
	<path id="XMLID_71_" d="M542.7,38.1c-0.3,1.8-0.4,3.6-0.8,5.4c-2,9.5-4,19-6.1,28.5c-0.6,2.6-1.5,4.9-4.2,6.3
		c-1,0.5-1.2,2.6-1.9,3.8c-2.1,3.7-3.1,8.7-8,9.7c-8.5,1.7-17.4,1.8-23.6-4.9c-3.9-4.3-6.3-10.5-7.9-16.2
		c-1.6-5.5-1.3-11.6-1.8-17.4c-0.6-7.3-0.5-14.7-1.8-21.9c-0.8-4.2-1.8-8.3-0.8-12.5c1-4.3,6.5-8.8,10.2-8.3c5,0.7,6.7,2.2,6.7,9
		c0,9,4,16.9,5.3,25.4c0.3,2.4,0.1,4.8,0.5,7.2c0.3,1.5,1,3.6,2,4c1.1,0.4,3.7-0.4,4.2-1.4c4-8,8.8-16.3,5.7-25.4
		c-1.9-5.5-2.6-10.8-2.8-16.5c-0.1-3,0.7-4.2,3.9-4c2,0.1,4.1-0.4,6.1-0.7c1.8,0,3.6,0,5.4,0c1.5,3,3.5,5.9,4.5,9
		c2.1,6.1,3.7,12.4,5.4,18.6C542.7,36.6,542.7,37.4,542.7,38.1z"/>
	<path id="XMLID_67_" d="M219.6,12.7c11.2,0.6,19.5,6,26.9,14.1c6.9,7.5,8.9,16.8,11.6,25.8c1.6,5.3,2.5,11.3,1.9,16.7
		c-0.5,4.9-2.8,10.1-5.8,14c-4,5.1-8,10.7-14.9,12.9c-4.6,1.5-9.1,2.4-14,1c-2.7-0.8-5.7-0.8-8.4-1.7c-2.7-0.9-5.4-2.1-7.6-3.8
		c-8.8-6.7-12.8-15.7-12.8-26.8c0-4.9-0.9-9.7-1.4-14.6c-0.1-0.9-0.3-2.1,0.2-2.6c3.1-3.3,1.7-7.7,2.9-11.4c1.7-5.5,2.8-12,6.5-16
		C208.3,16.5,213.4,12.6,219.6,12.7z M226.9,77.3c4.3-0.9,9.3-3,12.2-8.2c2.6-4.6,2.9-9.6,3.2-15c0.3-7-1.2-13-5-18.6
		c-1.6-2.4-3.7-3.9-7-2.7c-1.4,0.5-2.9,0.7-4.4,0.8c-6.4,0.2-9.7,2.5-10.7,8.7c-1.4,9-2.5,18.1,0.7,27.1
		C217.6,74.2,221,77.3,226.9,77.3z"/>
	<path id="XMLID_66_" d="M437,94.9c-7.9,0.3-8.7-3-9.7-11.5c-0.9-7.5-1.5-15-1.9-22.5c-0.3-6.7,0.2-13.4-0.2-20
		c-0.3-5.5-1.6-10.9-2.4-16.3c-0.1-0.6-0.3-1.1-0.3-1.7c-0.5-8.9,0.2-9.4,9.3-8.7c2.4,0.2,5-0.4,7.3,0.2c4.7,1.2,5,2.7,4.4,7.5
		c-0.6,5.2-0.7,10.5-0.3,15.6c0.2,3.6,2.6,4.6,6.4,3.8c9.6-2.1,21.8,4.1,26.1,13.1c0.1,0.2,0.2,0.5,0.2,0.7
		c-1.6,7.2,4.2,12.7,4.8,19.4c0.2,2.1,1.7,4.1,2.9,6c2.1,3.3,2.1,8.9-0.3,11.9c-3.3,4.2-5.6,4.9-11.3,3c-2.2-0.7-4.3-1.9-6.3-3
		c-7-3.8-7.7-10.2-6.9-17.7c0.4-3.4,0.5-6.9,0.3-10.3c-0.2-2.9-2.8-4.3-5.5-3.3c-6.5,2.3-10.4,9.6-8.8,16.4c0.6,2.7,1.6,5.3,2,7.9
		C447.7,92.1,444.7,94.9,437,94.9z"/>
	<path id="XMLID_65_" d="M187.3,54.2c-3.7-0.1-6-2.7-7.5-8.5c-1-3.8-1.9-7.7-3.1-11.5c-1-3-3.6-6-6.5-4.8c-2.5,1.1-5,4.5-5.5,7.3
		c-0.9,4.8-0.3,10-0.2,15c0.1,2.5,1.6,3.6,4.1,3.2c4.3-0.8,9,2.2,9.6,6.4c0.5,3.3-1.7,6.1-4.3,6.7c-7.7,1.7-8.1,7.2-7.8,13.2
		c0.2,4.1,1.4,8.1,1.7,12.2c0.1,1.9-0.3,4.4-1.4,5.8c-1,1.3-3.3,1.8-5.1,2c-3.3,0.3-6.6-0.3-9.8,0.3c-4.9,0.8-11.6-5.1-10.1-9.9
		c2.3-7.8,1.6-16,3.1-23.9c0.5-2.7-0.5-5.7-0.6-8.6c-0.3-10.1-0.7-20.2-0.7-30.3c0-4.9,3.6-7.9,7-10.5c2.8-2.1,6.2-4.1,9.5-4.5
		c5-0.5,10.2-0.1,15.1,0.9c4.4,0.8,8.5,2.7,12.7,4.3c1.3,0.5,2.8,1.8,3.4,3.1c1.7,3.9,3.3,8,4.1,12.1c0.5,2.7-0.6,5.6-0.8,8.5
		c-0.1,1.6,0.2,3.1,0.3,4.7C194.5,51,191,54.3,187.3,54.2z"/>
	<path id="XMLID_64_" d="M408.4,77.3c5.6,0,9.8,4.5,10,10.9c0.1,4-3.7,7.3-8.1,7.5c-4.6,0.2-8.9-5-9.4-11
		C400.5,80.5,403.9,77.3,408.4,77.3z"/>
</g>
</svg>
